<mxfile host="app.diagrams.net" modified="2021-01-01T15:52:58.010Z" agent="5.0 (Macintosh; Intel Mac OS X 11_1_0) AppleWebKit/537.36 (KHTML, like Gecko) Chrome/87.0.4280.88 Safari/537.36" etag="-cIAXWGHQypkOpTQ7J3a" version="13.10.9" type="github">
  <diagram name="Page-1" id="58cdce13-f638-feb5-8d6f-7d28b1aa9fa0">
    <mxGraphModel dx="884" dy="621" grid="1" gridSize="10" guides="1" tooltips="1" connect="1" arrows="1" fold="1" page="1" pageScale="1" pageWidth="1100" pageHeight="850" background="#ffffff" math="0" shadow="0">
      <root>
        <mxCell id="0" />
        <mxCell id="1" parent="0" />
        <mxCell id="LWWSfnZDgmoD0diwHtsT-22" style="edgeStyle=orthogonalEdgeStyle;rounded=0;orthogonalLoop=1;jettySize=auto;html=1;exitX=0.5;exitY=1;exitDx=0;exitDy=0;entryX=0.5;entryY=0;entryDx=0;entryDy=0;" edge="1" parent="1" source="LWWSfnZDgmoD0diwHtsT-6" target="LWWSfnZDgmoD0diwHtsT-19">
          <mxGeometry relative="1" as="geometry">
            <mxPoint x="310" y="250" as="targetPoint" />
          </mxGeometry>
        </mxCell>
        <mxCell id="LWWSfnZDgmoD0diwHtsT-23" value="用户购买" style="edgeLabel;html=1;align=center;verticalAlign=middle;resizable=0;points=[];" vertex="1" connectable="0" parent="LWWSfnZDgmoD0diwHtsT-22">
          <mxGeometry x="-0.2" relative="1" as="geometry">
            <mxPoint as="offset" />
          </mxGeometry>
        </mxCell>
        <mxCell id="LWWSfnZDgmoD0diwHtsT-33" value="提现" style="edgeStyle=orthogonalEdgeStyle;rounded=0;orthogonalLoop=1;jettySize=auto;html=1;exitX=0.5;exitY=0;exitDx=0;exitDy=0;entryX=0.25;entryY=0;entryDx=0;entryDy=0;" edge="1" parent="1" source="LWWSfnZDgmoD0diwHtsT-6" target="LWWSfnZDgmoD0diwHtsT-9">
          <mxGeometry relative="1" as="geometry" />
        </mxCell>
        <mxCell id="LWWSfnZDgmoD0diwHtsT-6" value="激活" style="rounded=1;whiteSpace=wrap;html=1;arcSize=24;fillColor=#ffffc0;strokeColor=#ff0000;shadow=0;comic=0;labelBackgroundColor=none;fontFamily=Verdana;fontSize=12;fontColor=#000000;align=center;" vertex="1" parent="1">
          <mxGeometry x="250" y="130" width="120" height="60" as="geometry" />
        </mxCell>
        <mxCell id="LWWSfnZDgmoD0diwHtsT-12" style="edgeStyle=orthogonalEdgeStyle;rounded=0;orthogonalLoop=1;jettySize=auto;html=1;exitX=0;exitY=0.5;exitDx=0;exitDy=0;entryX=1;entryY=0.5;entryDx=0;entryDy=0;" edge="1" parent="1" source="LWWSfnZDgmoD0diwHtsT-9" target="LWWSfnZDgmoD0diwHtsT-6">
          <mxGeometry relative="1" as="geometry" />
        </mxCell>
        <mxCell id="LWWSfnZDgmoD0diwHtsT-13" value="缴纳保证金" style="edgeLabel;html=1;align=center;verticalAlign=middle;resizable=0;points=[];" vertex="1" connectable="0" parent="LWWSfnZDgmoD0diwHtsT-12">
          <mxGeometry x="0.2438" y="4" relative="1" as="geometry">
            <mxPoint as="offset" />
          </mxGeometry>
        </mxCell>
        <mxCell id="LWWSfnZDgmoD0diwHtsT-9" value="关闭" style="rounded=1;whiteSpace=wrap;html=1;arcSize=24;fillColor=#ffffc0;strokeColor=#ff0000;shadow=0;comic=0;labelBackgroundColor=none;fontFamily=Verdana;fontSize=12;fontColor=#000000;align=center;" vertex="1" parent="1">
          <mxGeometry x="530" y="130" width="120" height="60" as="geometry" />
        </mxCell>
        <mxCell id="LWWSfnZDgmoD0diwHtsT-15" style="edgeStyle=orthogonalEdgeStyle;rounded=0;orthogonalLoop=1;jettySize=auto;html=1;exitX=0.5;exitY=1;exitDx=0;exitDy=0;entryX=0.45;entryY=-0.017;entryDx=0;entryDy=0;entryPerimeter=0;" edge="1" parent="1" source="LWWSfnZDgmoD0diwHtsT-14" target="LWWSfnZDgmoD0diwHtsT-9">
          <mxGeometry relative="1" as="geometry" />
        </mxCell>
        <mxCell id="LWWSfnZDgmoD0diwHtsT-14" value="" style="ellipse;fillColor=#000000;strokeColor=none;" vertex="1" parent="1">
          <mxGeometry x="569" y="40" width="30" height="30" as="geometry" />
        </mxCell>
        <mxCell id="LWWSfnZDgmoD0diwHtsT-30" style="edgeStyle=orthogonalEdgeStyle;rounded=0;orthogonalLoop=1;jettySize=auto;html=1;exitX=1;exitY=0.5;exitDx=0;exitDy=0;entryX=0.5;entryY=1;entryDx=0;entryDy=0;" edge="1" parent="1" source="LWWSfnZDgmoD0diwHtsT-16" target="LWWSfnZDgmoD0diwHtsT-9">
          <mxGeometry relative="1" as="geometry" />
        </mxCell>
        <mxCell id="LWWSfnZDgmoD0diwHtsT-31" value="提现" style="edgeLabel;html=1;align=center;verticalAlign=middle;resizable=0;points=[];" vertex="1" connectable="0" parent="LWWSfnZDgmoD0diwHtsT-30">
          <mxGeometry x="0.4234" relative="1" as="geometry">
            <mxPoint as="offset" />
          </mxGeometry>
        </mxCell>
        <mxCell id="LWWSfnZDgmoD0diwHtsT-16" value="过期" style="rounded=1;whiteSpace=wrap;html=1;arcSize=24;fillColor=#ffffc0;strokeColor=#ff0000;shadow=0;comic=0;labelBackgroundColor=none;fontFamily=Verdana;fontSize=12;fontColor=#000000;align=center;" vertex="1" parent="1">
          <mxGeometry x="449" y="250" width="120" height="60" as="geometry" />
        </mxCell>
        <mxCell id="LWWSfnZDgmoD0diwHtsT-19" value="判断保证金缴纳时间时间" style="rhombus;whiteSpace=wrap;html=1;fillColor=#ffffc0;strokeColor=#ff0000;" vertex="1" parent="1">
          <mxGeometry x="270" y="260" width="80" height="40" as="geometry" />
        </mxCell>
        <mxCell id="LWWSfnZDgmoD0diwHtsT-20" value="过期" style="edgeStyle=orthogonalEdgeStyle;html=1;align=left;verticalAlign=bottom;endArrow=open;endSize=8;strokeColor=#ff0000;exitX=1;exitY=0.5;exitDx=0;exitDy=0;" edge="1" source="LWWSfnZDgmoD0diwHtsT-19" parent="1">
          <mxGeometry x="-1" relative="1" as="geometry">
            <mxPoint x="450" y="280" as="targetPoint" />
            <mxPoint x="380" y="350" as="sourcePoint" />
          </mxGeometry>
        </mxCell>
      </root>
    </mxGraphModel>
  </diagram>
</mxfile>
